<svg width="30" height="30" viewBox="0 0 30 30" fill="none" xmlns="http://www.w3.org/2000/svg">
<g clip-path="url(#clip0_251_6)">
<rect width="30" height="30" fill="#6C003E"/>
<path d="M-14.834 -1.25117C-14.834 -2.49155 -13.8263 -3.5 -12.5796 -3.5H42.745C43.9916 -3.5 44.9993 -2.49156 44.9993 -1.25117V17.2113C44.9993 18.4516 43.9916 19.4601 42.745 19.4601H23.2186C22.0062 19.4601 20.9925 20.004 20.1819 20.6619C19.3768 21.3153 18.6923 22.1471 18.1343 22.854C17.4222 23.7564 16.3205 24.3333 15.0827 24.3333C13.8449 24.3333 12.7432 23.7564 12.031 22.854C11.4731 22.1471 10.7886 21.3153 9.98347 20.6619C9.17291 20.004 8.15913 19.4601 6.94672 19.4601H-12.5796C-13.8263 19.4601 -14.834 18.4516 -14.834 17.2113V-1.25117Z" fill="#FAF3E1" stroke="#DEDEDE" stroke-width="2"/>
</g>
<defs>
<clipPath id="clip0_251_6">
<rect width="30" height="30" fill="white"/>
</clipPath>
</defs>
</svg>
