<svg width="30" height="30" viewBox="0 0 30 30" fill="none" xmlns="http://www.w3.org/2000/svg">
<g clip-path="url(#clip0_251_6)">
<rect width="30" height="30" fill="#6C003E"/>
<path d="M-14.834 0.748827C-14.834 -0.491554 -13.8263 -1.5 -12.5796 -1.5H42.745C43.9916 -1.5 44.9993 -0.491555 44.9993 0.748826V19.2113C44.9993 20.4516 43.9916 21.4601 42.745 21.4601H23.2186C22.0062 21.4601 20.9925 22.004 20.1819 22.6619C19.3768 23.3153 18.6923 24.1471 18.1343 24.854C17.4222 25.7564 16.3205 26.3333 15.0827 26.3333C13.8449 26.3333 12.7432 25.7564 12.031 24.854C11.4731 24.1471 10.7886 23.3153 9.98347 22.6619C9.17291 22.004 8.15913 21.4601 6.94672 21.4601H-12.5796C-13.8263 21.4601 -14.834 20.4516 -14.834 19.2113V0.748827Z" fill="#FAF3E1" stroke="#DEDEDE" stroke-width="2"/>
</g>
<defs>
<clipPath id="clip0_251_6">
<rect width="30" height="30" fill="white"/>
</clipPath>
</defs>
</svg>
