<svg class="icon-sprite" xmlns="http://www.w3.org/2000/svg">
  <defs>
    <symbol id="back" viewBox="0 0 24 24">
      <path d="M2.5 11.5L9.5 4.5" class="round"/>
      <path d="M2.5 11.5H22.5" class="round"/>
      <path d="M9.5 18.5L2.5 11.5" class="round"/>
    </symbol>
    <symbol id="chevron-down" viewBox="0 0 16 16">
      <path d="M7.5 10.5L4.5 7.5" class="round"/>
      <path d="M7.5 10.5L10.5 7.5" class="round"/>
    </symbol>
    <symbol id="close" viewBox="0 0 24 24">
      <path d="M4.5 19.5L19.5 4.5" class="round"/>
      <path d="M19.5 19.5L4.5 4.5" class="round"/>
    </symbol>
    <symbol id="curve" viewBox="0 0 80 24">
      <path d="M21.1 14.8a24 24 0 0 0 37.8 0C64.3 8 71.2 0 80 0H0c8.8 0 15.7 7.9 21.1 14.8Z" class="fill no-stroke"/>
    </symbol>
    <symbol id="forward" viewBox="0 0 24 24">
      <path d="M5.5 18.5C5.5 12.9772 9.97715 8.5 15.5 8.5" class="no-fill round"/>
      <path d="M15.5 10.5V6.5L18.5 8.5L15.5 10.5Z" class="fill round"/>
    </symbol>
    <symbol id="pause" viewBox="0 0 24 24">
      <rect x="6" y="4" width="3" height="16"/>
      <rect x="15" y="4" width="3" height="16"/>
    </symbol>
    <symbol id="play" viewBox="0 0 24 24">
      <path d="M6.5 21.5V2.5L21.5 12L6.5 21.5Z" class="fill"/>
    </symbol>
    <symbol id="rewind" viewBox="0 0 24 24">
      <path d="M18.5 18.5C18.5 12.9772 14.0228 8.5 8.5 8.5" class="no-fill round"/>
      <path d="M8.5 10.5V6.5L5.5 8.5L8.5 10.5Z" class="fill round"/>
    </symbol>
    <symbol id="gear" viewBox="0 0 24 24">
      <path d="M20 7.2a1.9 1.9 0 0 0 1 2.6l1.3.4a1.9 1.9 0 0 1 0 3.6l-1.3.4a1.9 1.9 0 0 0-1 2.6l.5 1.2a1.9 1.9 0 0 1-2.5 2.5l-1.2-.6a1.9 1.9 0 0 0-2.6 1l-.4 1.4a1.9 1.9 0 0 1-3.6 0L9.8 21a1.9 1.9 0 0 0-2.6-1l-1.2.5A1.9 1.9 0 0 1 3.5 18l.6-1.2a1.9 1.9 0 0 0-1-2.6l-1.4-.4a1.9 1.9 0 0 1 0-3.6L3 9.8a1.9 1.9 0 0 0 1-2.6L3.6 6A1.9 1.9 0 0 1 6 3.5l1.2.6a1.9 1.9 0 0 0 2.6-1l.4-1.4a1.9 1.9 0 0 1 3.6 0l.4 1.3a1.9 1.9 0 0 0 2.6 1l1.2-.5A1.9 1.9 0 0 1 20.5 6l-.6 1.2Z"/>
      <path d="M8.5 12a3.5 3.5 0 1 0 7 0 3.5 3.5 0 0 0-7 0v0Z"/>
    </symbol>
  </defs>
</svg>